<?xml version="1.0" encoding="utf-8"?>
<!-- Generator: Adobe Illustrator 19.0.0, SVG Export Plug-In . SVG Version: 6.00 Build 0)  -->
<svg version="1.1" id="Capa_1" xmlns="http://www.w3.org/2000/svg" xmlns:xlink="http://www.w3.org/1999/xlink" x="0px" y="0px"
	 viewBox="0 0 50 50" style="enable-background:new 0 0 50 50;" xml:space="preserve">
<style type="text/css">
	.st0{fill:#5F737B;}
	.st1{opacity:0.81;fill:#FFFFFF;enable-background:new    ;}
</style>
<g>
	<path class="st0" d="M26.6,12.4h-8.9v8.9h8.9V12.4z M25.3,20.1h-6.4v-6.4h6.4V20.1z"/>
	<path class="st0" d="M40,12.4H29.8c-0.4,0-0.6,0.3-0.6,0.6c0,0.4,0.3,0.6,0.6,0.6H40c0.4,0,0.6-0.3,0.6-0.6
		C40.7,12.7,40.4,12.4,40,12.4z"/>
	<path class="st0" d="M40,16.2H29.8c-0.4,0-0.6,0.3-0.6,0.6c0,0.3,0.3,0.6,0.6,0.6H40c0.4,0,0.6-0.3,0.6-0.6
		C40.6,16.5,40.4,16.2,40,16.2z"/>
	<path class="st0" d="M40,20.1H29.8c-0.4,0-0.6,0.3-0.6,0.6c0,0.4,0.3,0.6,0.6,0.6H40c0.4,0,0.6-0.3,0.6-0.6
		C40.7,20.3,40.4,20.1,40,20.1z"/>
	<path class="st0" d="M40,23.9H19c-0.4,0-0.6,0.3-0.6,0.6c0,0.4,0.3,0.6,0.6,0.6h21c0.4,0,0.6-0.3,0.6-0.6
		C40.7,24.2,40.4,23.9,40,23.9z"/>
	<path class="st0" d="M28.5,27.7h-9.6c-0.4,0-0.6,0.3-0.6,0.6c0,0.3,0.3,0.6,0.6,0.6h9.6c0.4,0,0.6-0.3,0.6-0.6
		C29.1,28,28.9,27.7,28.5,27.7z"/>
	<path class="st0" d="M28.5,31.5h-9.6c-0.4,0-0.6,0.3-0.6,0.6s0.3,0.6,0.6,0.6h9.6c0.4,0,0.6-0.3,0.6-0.6S28.9,31.5,28.5,31.5z"/>
	<path class="st0" d="M28.5,35.4h-9.6c-0.4,0-0.6,0.3-0.6,0.6s0.3,0.6,0.6,0.6h9.6c0.4,0,0.6-0.3,0.6-0.6S28.9,35.4,28.5,35.4z"/>
	<path class="st0" d="M31.7,36.6h8.9v-8.9h-8.9V36.6z M33,29h6.4v6.4H33V29z"/>
	<path class="st0" d="M44.5,10.5L44.5,10.5V2.2H13.9v19.1H7.5v15.3c0,2.1,1.7,3.8,3.8,3.8h29.3c2.1,0,3.8-1.7,3.8-3.8L44.5,10.5
		L44.5,10.5z M43.2,3.5v6.4H15.1V3.5H43.2z M8.8,36.6v-14h5.1v14c0,1.4-1.1,2.6-2.6,2.6C9.9,39.2,8.8,38,8.8,36.6z M40.7,39.2H14.2
		l0,0c0.1-0.1,0.2-0.3,0.4-0.5v-0.1c0.1-0.2,0.2-0.4,0.3-0.5V38c0.1-0.2,0.1-0.4,0.2-0.6c0,0,0,0,0-0.1c0-0.2,0.1-0.4,0.1-0.7V21.3
		V11.1h28v25.5C43.2,38,42.1,39.2,40.7,39.2z"/>
	<path class="st0" d="M36.8,4.8H21.5v3.8h15.3V4.8z M35.6,7.3H22.8V6h12.8V7.3z"/>
</g>
<circle class="st1" cx="20.6" cy="30.3" r="7.7"/>
<g>
	<g>
		<path class="st0" d="M20.6,38.8c-4.7,0-8.6-3.8-8.6-8.6c0-4.7,3.8-8.6,8.6-8.6c4.7,0,8.6,3.8,8.6,8.6S25.4,38.8,20.6,38.8z
			 M20.6,23.5c-3.7,0-6.7,3-6.7,6.7s3,6.7,6.7,6.7s6.7-3,6.7-6.7C27.4,26.5,24.4,23.5,20.6,23.5z"/>
	</g>
	<g>
		<path class="st0" d="M20.6,36.6c-3.5,0-6.4-2.9-6.4-6.4c0-3.5,2.9-6.4,6.4-6.4s6.4,2.9,6.4,6.4S24.2,36.6,20.6,36.6z M20.6,24.8
			c-3,0-5.4,2.4-5.4,5.4s2.4,5.4,5.4,5.4s5.4-2.4,5.4-5.4C26.1,27.3,23.7,24.8,20.6,24.8z"/>
	</g>
	<g>
		<path class="st0" d="M20.6,48.7c-0.7,0-1.2-0.5-1.2-1.2v-9c0-0.7,0.5-1.2,1.2-1.2s1.2,0.5,1.2,1.2v9
			C21.9,48.2,21.3,48.7,20.6,48.7z"/>
	</g>
</g>
</svg>
