<?xml version="1.0" encoding="utf-8"?>
<!-- Generator: Adobe Illustrator 19.0.0, SVG Export Plug-In . SVG Version: 6.00 Build 0)  -->
<svg version="1.1" id="Layer_1" xmlns="http://www.w3.org/2000/svg" xmlns:xlink="http://www.w3.org/1999/xlink" x="0px" y="0px"
	 viewBox="0 0 50 50" style="enable-background:new 0 0 50 50;" xml:space="preserve">
<style type="text/css">
	.st0{fill:#5F737B;}
</style>
<g>
	<g id="XMLID_1_">
		<g id="XMLID_17_">
			<path id="XMLID_23_" class="st0" d="M12.9,26.9c-0.6,0-1.2-0.2-1.5-0.6c-0.2-0.3-0.6-0.5-1-0.4L9.7,26c-0.3,0.1-0.6,0.3-0.7,0.6
				c-0.1,0.3-0.1,0.6,0.1,1c0.6,1,1.6,1.5,2.9,1.6v1.6c0,0.5,0.4,1,1,1s1-0.4,1-1v-1.6c0.9-0.2,1.6-0.5,2.1-1c0.6-0.6,1-1.4,1-2.2
				c0-0.6-0.2-1.2-0.5-1.6s-0.7-0.7-1.2-1c-0.4-0.2-1.3-0.4-2.3-0.6c-0.4-0.1-0.7-0.2-0.9-0.3C12,22.4,12,22.3,12,22.2
				c0-0.4,0.5-0.5,0.9-0.5c0.5,0,0.9,0.1,1.2,0.4c0.2,0.3,0.6,0.4,1.1,0.3l0.5-0.2c0.3-0.1,0.5-0.3,0.6-0.7c0.1-0.3,0-0.6-0.2-1
				c-0.5-0.5-1.2-0.9-2-1.1v-1.2c0-0.5-0.4-1-1-1c-0.5,0-1,0.4-1,1v1.2c-1,0.2-1.7,0.5-2.1,1.1c-0.5,0.6-0.7,1.3-0.7,2
				s0.2,1.3,0.6,1.8c0.4,0.5,1.5,1,3.2,1.3c0.4,0.1,0.7,0.2,0.9,0.3c0.1,0.1,0.2,0.2,0.2,0.4C13.9,26.4,13.9,26.9,12.9,26.9z"/>
		</g>
		<g id="XMLID_16_">
		</g>
		<g id="XMLID_15_">
		</g>
		<g id="XMLID_14_">
		</g>
		<g id="XMLID_13_">
		</g>
		<g id="XMLID_12_">
		</g>
		<g id="XMLID_11_">
		</g>
		<g id="XMLID_10_">
		</g>
		<g id="XMLID_9_">
		</g>
		<g id="XMLID_8_">
		</g>
		<g id="XMLID_7_">
		</g>
		<g id="XMLID_6_">
		</g>
		<g id="XMLID_5_">
		</g>
		<g id="XMLID_4_">
		</g>
		<g id="XMLID_3_">
		</g>
		<g id="XMLID_2_">
		</g>
	</g>
	<g id="XMLID_80_">
		<path class="st0" d="M13.2,36.5c-6.7,0-12.1-5.4-12.1-12.1s5.4-12.1,12.1-12.1c4.3,0,8.2,2.2,10.4,5.8c0.3,0.5,0.1,1.2-0.4,1.5
			s-1.2,0.1-1.5-0.4c-1.8-3-5-4.8-8.5-4.8c-5.5,0-10,4.5-10,10s4.5,10,10,10c1.2,0,2.3-0.2,3.4-0.6c0.5-0.2,1.2,0.1,1.4,0.6
			c0.2,0.6-0.1,1.2-0.6,1.4C16,36.3,14.7,36.5,13.2,36.5z"/>
	</g>
	<g id="XMLID_19_">
		<g id="XMLID_75_">
			<g id="XMLID_76_">
				<path id="XMLID_77_" class="st0" d="M45.7,11.7c-1.3,0-2.3,1.1-2.3,2.3s1.1,2.3,2.3,2.3c1.3,0,2.3-1.1,2.3-2.3
					S47,11.7,45.7,11.7z M45.7,15.2c-0.6,0-1.2-0.5-1.2-1.2s0.5-1.2,1.2-1.2s1.2,0.5,1.2,1.2S46.4,15.2,45.7,15.2z"/>
			</g>
		</g>
		<g id="XMLID_70_">
			<g id="XMLID_71_">
				<path id="XMLID_72_" class="st0" d="M22.2,25.3c-1.3,0-2.3,1.1-2.3,2.3s1.1,2.3,2.3,2.3s2.3-1.1,2.3-2.3S23.4,25.3,22.2,25.3z
					 M22.2,28.8c-0.6,0-1.2-0.5-1.2-1.2c0-0.6,0.5-1.2,1.2-1.2c0.6,0,1.2,0.5,1.2,1.2C23.3,28.2,22.8,28.8,22.2,28.8z"/>
			</g>
		</g>
		<g id="XMLID_65_">
			<g id="XMLID_66_">
				<path id="XMLID_67_" class="st0" d="M29.3,18.1c-1.3,0-2.3,1.1-2.3,2.3s1.1,2.3,2.3,2.3c1.3,0,2.3-1.1,2.3-2.3
					S30.6,18.1,29.3,18.1z M29.3,21.7c-0.6,0-1.2-0.5-1.2-1.2c0-0.6,0.5-1.2,1.2-1.2c0.6,0,1.2,0.5,1.2,1.2
					C30.3,21.2,29.9,21.7,29.3,21.7z"/>
			</g>
		</g>
		<g id="XMLID_60_">
			<g id="XMLID_61_">
				<path id="XMLID_62_" class="st0" d="M34.3,23.1c-1.3,0-2.3,1.1-2.3,2.3s1.1,2.3,2.3,2.3c1.3,0,2.3-1.1,2.3-2.3
					S35.5,23.1,34.3,23.1z M34.3,26.8c-0.6,0-1.2-0.5-1.2-1.2c0-0.6,0.5-1.2,1.2-1.2s1.2,0.5,1.2,1.2C35.4,26.2,34.9,26.8,34.3,26.8
					z"/>
			</g>
		</g>
		<g id="XMLID_57_">
			<g id="XMLID_58_">
				
					<rect id="XMLID_59_" x="33.6" y="19.1" transform="matrix(-0.7064 0.7078 -0.7078 -0.7064 82.1564 5.349)" class="st0" width="12.8" height="1.3"/>
			</g>
		</g>
		<g id="XMLID_54_">
			<g id="XMLID_55_">
				
					<rect id="XMLID_56_" x="31.2" y="21.3" transform="matrix(-0.7058 0.7084 -0.7084 -0.7058 70.5877 16.7299)" class="st0" width="1.3" height="3.5"/>
			</g>
		</g>
		<g id="XMLID_51_">
			<g id="XMLID_52_">
				
					<rect id="XMLID_53_" x="22.4" y="23.4" transform="matrix(-0.7071 0.7071 -0.7071 -0.7071 60.7866 22.953)" class="st0" width="6.5" height="1.3"/>
			</g>
		</g>
		<g id="XMLID_48_">
			<g id="XMLID_49_">
				<rect id="XMLID_50_" x="19.8" y="38.8" class="st0" width="28.3" height="1.3"/>
			</g>
		</g>
		<g id="XMLID_45_">
			<g id="XMLID_46_">
				<rect id="XMLID_47_" x="45.1" y="21.8" class="st0" width="1.3" height="17.6"/>
			</g>
		</g>
		<g id="XMLID_42_">
			<g id="XMLID_43_">
				<rect id="XMLID_44_" x="34" y="30.6" class="st0" width="1.3" height="8.8"/>
			</g>
		</g>
		<g id="XMLID_39_">
			<g id="XMLID_40_">
				<rect id="XMLID_41_" x="21.5" y="32.4" class="st0" width="1.3" height="7.1"/>
			</g>
		</g>
		<g id="XMLID_36_">
			<g id="XMLID_37_">
				<rect id="XMLID_38_" x="28.6" y="27.1" class="st0" width="1.3" height="12.4"/>
			</g>
		</g>
		<g id="XMLID_35_">
		</g>
		<g id="XMLID_34_">
		</g>
		<g id="XMLID_33_">
		</g>
		<g id="XMLID_32_">
		</g>
		<g id="XMLID_31_">
		</g>
		<g id="XMLID_30_">
		</g>
		<g id="XMLID_29_">
		</g>
		<g id="XMLID_28_">
		</g>
		<g id="XMLID_27_">
		</g>
		<g id="XMLID_26_">
		</g>
		<g id="XMLID_25_">
		</g>
		<g id="XMLID_24_">
		</g>
		<g id="XMLID_22_">
		</g>
		<g id="XMLID_21_">
		</g>
		<g id="XMLID_20_">
		</g>
	</g>
</g>
</svg>
