<?xml version="1.0" encoding="utf-8"?>
<!-- Generator: Adobe Illustrator 19.0.0, SVG Export Plug-In . SVG Version: 6.00 Build 0)  -->
<svg version="1.1" id="Capa_1" xmlns="http://www.w3.org/2000/svg" xmlns:xlink="http://www.w3.org/1999/xlink" x="0px" y="0px"
	 viewBox="0 0 50 50" style="enable-background:new 0 0 50 50;" xml:space="preserve">
<style type="text/css">
	.st0{fill:#3B484C;}
	.st1{fill:#5F737B;}
</style>
<g>
	<path class="st0" d="M46.5,40.8v-18H32.6v-12h-14v29.9h-2v2h31.9v-2h-2V40.8z M34.5,24.8h4v4h-4V24.8z M26.6,12.9h4v4h-4V12.9z
		 M20.6,12.9h4v4h-4V12.9z M20.6,18.8h4v4h-4V18.8z M24.6,24.8v4h-5v-4H24.6z M19.5,30.8h5v4h-5V30.8z M28.6,40.8h-7v-4h7V40.8z
		 M30.6,34.8h-5v-4h5V34.8z M30.6,28.8h-5v-4h5V28.8z M26.6,22.8v-4h4v4H26.6z M34.5,30.8h4v4h-4V30.8z M42.5,40.8h-6v-4h6V40.8z
		 M44.5,34.8h-4v-4h4V34.8z M44.5,28.8h-4v-4h4V28.8z"/>
</g>
<g>
	<path class="st1" d="M31.5,40.8v-18H17.6v-12h-14v29.9h-2v2h31.9v-2h-2V40.8z M5.6,12.9h4v4h-4V12.9z M5.6,18.8h4v4h-4V18.8z
		 M5.6,24.8h4v4h-4V24.8z M5.6,30.8h4v4h-4V30.8z M13.6,40.8h-6v-4h6V40.8z M15.6,34.8h-4v-4h4V34.8z M15.6,28.8h-4v-4h4V28.8z
		 M15.6,22.8h-4v-4h4V22.8z M15.6,16.8h-4v-4h4V16.8z M25.5,24.8h4v4h-4V24.8z M19.5,24.8h4v4h-4V24.8z M19.5,30.8h4v4h-4V30.8z
		 M21.5,40.8v-4h6v4H21.5z M25.5,34.8v-4h4v4H25.5z"/>
</g>
</svg>
