<?xml version="1.0" encoding="utf-8"?>
<!-- Generator: Adobe Illustrator 19.0.0, SVG Export Plug-In . SVG Version: 6.00 Build 0)  -->
<svg version="1.1" id="Layer_1" xmlns="http://www.w3.org/2000/svg" xmlns:xlink="http://www.w3.org/1999/xlink" x="0px" y="0px"
	 viewBox="0 0 50 50" style="enable-background:new 0 0 50 50;" xml:space="preserve">
<style type="text/css">
	.st0{fill:#5F737B;}
</style>
<g id="XMLID_11_">
	<path id="XMLID_36_" class="st0" d="M28.2,28.8c0.2,0.2,0.2,0.5,0,0.7s-0.5,0.2-0.7,0c-0.9-0.8-1.8-0.8-2.7,0c-0.6,0.6-1.3,0.9-2,1
		c0,0,0,0-0.1,0c-0.7,0-1.5-0.3-2.1-1c-0.3-0.3-0.5-0.4-0.8-0.4c-0.4,0-0.7,0.3-0.7,0.3c-0.2,0.2-0.5,0.2-0.7,0s-0.2-0.5,0-0.7
		c0.1-0.1,0.6-0.7,1.5-0.7c0.5,0,1,0.2,1.5,0.7s0.9,0.7,1.4,0.7c0.4,0,0.9-0.3,1.3-0.7C25.4,27.5,26.9,27.5,28.2,28.8z"/>
	<path id="XMLID_37_" class="st0" d="M35,17H13c-0.3,0-0.5-0.2-0.5-0.5S12.7,16,13,16h22c0.3,0,0.5,0.2,0.5,0.5S35.3,17,35,17z"/>
	<path id="XMLID_38_" class="st0" d="M12.5,12.5c0-0.3,0.2-0.5,0.5-0.5h22c0.3,0,0.5,0.2,0.5,0.5S35.3,13,35,13H13
		C12.7,13,12.5,12.8,12.5,12.5z"/>
	<path id="XMLID_39_" class="st0" d="M12.5,8.5C12.5,8.2,12.7,8,13,8h22c0.3,0,0.5,0.2,0.5,0.5S35.3,9,35,9H13
		C12.7,9,12.5,8.8,12.5,8.5z"/>
	<polygon id="XMLID_17_" class="st0" points="38,24.7 38,37 37,37 37,25 35.5,22.1 34,25 34,37 33,37 33,24.7 35.5,19.9 	"/>
	<path id="XMLID_15_" class="st0" d="M9,2v36h25v-1H10V3h29v34h-2v1h3V2H9z"/>
</g>
<g id="XMLID_6_">
	<path id="XMLID_18_" class="st0" d="M34,47.2c0,0.7,0.7,1.4,1.5,1.4S37,48,37,47.2c0,1-1,1.9-2,1.9c-0.9,0-1.8-0.6-2-1.5
		c0-0.1,0-0.1,0-0.2c0-0.1,0-0.1,0-0.2V24.8l2-3.8l2,3.8V25l-1.5-2.9L34,25V47.2z"/>
	<path id="XMLID_16_" class="st0" d="M35.5,19.9L33,24.7v22.5c0,0.1,0,0.1,0,0.2c0,0.1,0,0.1,0,0.2c0.2,1.1,1.2,2,2.5,2
		c1.4,0,2.5-1.1,2.5-2.4V24.7L35.5,19.9z M37,47.2c0,0.7-0.7,1.4-1.5,1.4S34,48,34,47.2V25l1.5-2.9L37,25V47.2z"/>
</g>
<g id="XMLID_3_">
	<path id="XMLID_28_" class="st0" d="M28.2,29.5c-0.2,0.2-0.5,0.2-0.7,0c-0.9-0.8-1.8-0.8-2.7,0c-0.6,0.6-1.3,0.9-2,1c0,0,0,0-0.1,0
		c-0.7,0-1.5-0.3-2.1-1c-0.3-0.3-0.5-0.4-0.8-0.4c-0.4,0-0.7,0.3-0.7,0.3c-0.2,0.2-0.5,0.2-0.7,0s-0.2-0.5,0-0.7
		c0.1-0.1,0.6-0.7,1.5-0.7c0.5,0,1,0.2,1.5,0.7s0.9,0.7,1.4,0.7c0.4,0,0.9-0.3,1.3-0.7c1.3-1.3,2.8-1.3,4.1,0
		C28.4,29,28.4,29.3,28.2,29.5z"/>
</g>
<g id="XMLID_2_">
	<path id="XMLID_27_" class="st0" d="M35.5,8.5C35.5,8.8,35.3,9,35,9H13c-0.3,0-0.5-0.2-0.5-0.5S12.7,8,13,8h22
		C35.3,8,35.5,8.2,35.5,8.5z"/>
</g>
<g id="XMLID_5_">
	<path id="XMLID_26_" class="st0" d="M35.5,12.5c0,0.3-0.2,0.5-0.5,0.5H13c-0.3,0-0.5-0.2-0.5-0.5S12.7,12,13,12h22
		C35.3,12,35.5,12.2,35.5,12.5z"/>
</g>
<g id="XMLID_7_">
	<path id="XMLID_25_" class="st0" d="M35.5,16.5c0,0.3-0.2,0.5-0.5,0.5H13c-0.3,0-0.5-0.2-0.5-0.5S12.7,16,13,16h22
		C35.3,16,35.5,16.2,35.5,16.5z"/>
</g>
</svg>
