<?xml version="1.0" encoding="utf-8"?>
<!-- Generator: Adobe Illustrator 19.0.0, SVG Export Plug-In . SVG Version: 6.00 Build 0)  -->
<svg version="1.1" id="Capa_1" xmlns="http://www.w3.org/2000/svg" xmlns:xlink="http://www.w3.org/1999/xlink" x="0px" y="0px"
	 viewBox="0 0 50 50" style="enable-background:new 0 0 50 50;" xml:space="preserve">
<style type="text/css">
	.st0{fill:#5F737B;}
</style>
<g>
	<path class="st0" d="M22.8,26.4v-7.1c0-0.4-0.3-0.7-0.7-0.7s-0.7,0.3-0.7,0.7v7.1c-1,0.3-1.7,1-2,2h-5c-0.4,0-0.7,0.3-0.7,0.7
		c0,0.4,0.3,0.7,0.7,0.7h5c0.3,1.2,1.4,2.1,2.7,2.1c1.5,0,2.8-1.2,2.8-2.8C24.9,27.7,24,26.7,22.8,26.4z M22.1,30.4
		c-0.8,0-1.4-0.6-1.4-1.4s0.6-1.4,1.4-1.4c0.8,0,1.4,0.6,1.4,1.4S22.9,30.4,22.1,30.4z"/>
	<path class="st0" d="M22.1,15.1c0.4,0,0.7-0.3,0.7-0.7v-0.7c0-0.4-0.3-0.7-0.7-0.7s-0.7,0.3-0.7,0.7v0.7
		C21.5,14.8,21.8,15.1,22.1,15.1z"/>
	<path class="st0" d="M22.1,43c-0.4,0-0.7,0.3-0.7,0.7v0.7c0,0.4,0.3,0.7,0.7,0.7c0.4,0,0.7-0.3,0.7-0.7v-0.7
		C22.8,43.3,22.5,43,22.1,43z"/>
	<path class="st0" d="M7.5,28.3H6.8c-0.4,0-0.7,0.3-0.7,0.7c0,0.4,0.3,0.7,0.7,0.7h0.7c0.4,0,0.7-0.3,0.7-0.7
		C8.2,28.7,7.9,28.3,7.5,28.3z"/>
	<path class="st0" d="M11.3,38.9l-0.5,0.5c-0.3,0.3-0.3,0.7,0,1c0.1,0.1,0.3,0.2,0.5,0.2s0.4-0.1,0.5-0.2l0.5-0.5
		c0.3-0.3,0.3-0.7,0-1S11.6,38.6,11.3,38.9z"/>
	<path class="st0" d="M33,38.9c-0.3-0.3-0.7-0.3-1,0s-0.3,0.7,0,1l0.5,0.5c0.1,0.1,0.3,0.2,0.5,0.2s0.4-0.1,0.5-0.2
		c0.3-0.3,0.3-0.7,0-1L33,38.9z"/>
	<path class="st0" d="M11.8,17.7c-0.3-0.3-0.7-0.3-1,0s-0.3,0.7,0,1l0.5,0.5c0.1,0.1,0.3,0.2,0.5,0.2s0.4-0.1,0.5-0.2
		c0.3-0.3,0.3-0.7,0-1L11.8,17.7z"/>
</g>
<g>
	<path class="st0" d="M37.5,7.7c-2.2,0-4,1.8-4,4s1.8,4,4,4s4-1.8,4-4S39.7,7.7,37.5,7.7z M37.5,14.1c-1.3,0-2.4-1.1-2.4-2.4
		s1.1-2.4,2.4-2.4c1.3,0,2.4,1.1,2.4,2.4C39.9,13.1,38.8,14.1,37.5,14.1z"/>
	<path class="st0" d="M44.8,4.4c-2-2-4.6-3.1-7.4-3.1c-2.8,0-5.4,1.1-7.4,3.1c-3.7,3.7-4.1,10.5-1,14.7l8.4,12.1l8.4-12.1
		C48.9,15,48.5,8.1,44.8,4.4z M44.5,18.2l-7.1,10.2l-7.1-10.2c-2.7-3.6-2.3-9.5,0.8-12.6C32.8,3.9,35,3,37.4,3s4.6,0.9,6.3,2.6
		C46.8,8.7,47.2,14.6,44.5,18.2z"/>
</g>
<g>
	<path class="st0" d="M22.1,49c-11,0-19.9-8.9-19.9-19.9c0-10.4,8.1-19.1,18.4-19.8c0.6,0,1.1,0.4,1.2,1c0,0.6-0.4,1.1-1,1.2
		c-9.2,0.7-16.4,8.4-16.4,17.7c0,9.8,7.9,17.7,17.7,17.7c9.2,0,16.8-6.9,17.6-16.1c0.1-0.6,0.6-1,1.2-1c0.6,0.1,1,0.6,1,1.2
		C41,41.2,32.5,49,22.1,49z"/>
</g>
</svg>
