<?xml version="1.0" encoding="utf-8"?>
<!-- Generator: Adobe Illustrator 19.0.0, SVG Export Plug-In . SVG Version: 6.00 Build 0)  -->
<svg version="1.1" id="Layer_1" xmlns="http://www.w3.org/2000/svg" xmlns:xlink="http://www.w3.org/1999/xlink" x="0px" y="0px"
	 viewBox="0 0 50 50" style="enable-background:new 0 0 50 50;" xml:space="preserve">
<style type="text/css">
	.st0{fill:#5F737B;}
	.st1{fill:none;stroke:#5F737B;stroke-width:1.5;stroke-linecap:round;stroke-miterlimit:10;}
</style>
<g id="XMLID_19_">
	<g id="XMLID_75_">
		<g id="XMLID_76_">
			<g id="XMLID_77_">
				<path id="XMLID_139_" class="st0" d="M46.3,11.5c-1.4,0-2.4,1.1-2.4,2.4s1.1,2.4,2.4,2.4s2.4-1.1,2.4-2.4
					C48.8,12.6,47.7,11.5,46.3,11.5z M46.3,15.1c-0.7,0-1.2-0.5-1.2-1.2s0.5-1.2,1.2-1.2s1.2,0.5,1.2,1.2S47,15.1,46.3,15.1z"/>
			</g>
		</g>
	</g>
	<g id="XMLID_70_">
		<g id="XMLID_71_">
			<g id="XMLID_72_">
				<path id="XMLID_138_" class="st0" d="M22.1,25.4c-1.4,0-2.4,1.1-2.4,2.4c0,1.4,1.1,2.4,2.4,2.4c1.4,0,2.4-1.1,2.4-2.4
					S23.4,25.4,22.1,25.4z M22.1,29c-0.7,0-1.2-0.5-1.2-1.2s0.5-1.2,1.2-1.2s1.2,0.5,1.2,1.2C23.3,28.5,22.7,29,22.1,29z"/>
			</g>
		</g>
	</g>
	<g id="XMLID_65_">
		<g id="XMLID_66_">
			<g id="XMLID_67_">
				<path id="XMLID_137_" class="st0" d="M29.4,18.1c-1.4,0-2.4,1.1-2.4,2.4c0,1.4,1.1,2.4,2.4,2.4c1.4,0,2.4-1.1,2.4-2.4
					S30.7,18.1,29.4,18.1z M29.4,21.8c-0.7,0-1.2-0.5-1.2-1.2s0.5-1.2,1.2-1.2s1.2,0.5,1.2,1.2C30.5,21.2,30,21.8,29.4,21.8z"/>
			</g>
		</g>
	</g>
	<g id="XMLID_60_">
		<g id="XMLID_61_">
			<g id="XMLID_62_">
				<path id="XMLID_136_" class="st0" d="M34.5,23.3c-1.4,0-2.4,1.1-2.4,2.4c0,1.4,1.1,2.4,2.4,2.4s2.4-1.1,2.4-2.4
					S35.9,23.3,34.5,23.3z M34.5,26.9c-0.7,0-1.2-0.5-1.2-1.2s0.5-1.2,1.2-1.2s1.2,0.5,1.2,1.2S35.2,26.9,34.5,26.9z"/>
			</g>
		</g>
	</g>
	<g id="XMLID_57_">
		<g id="XMLID_58_">
			<g id="XMLID_59_">
				
					<rect id="XMLID_135_" x="33.8" y="19.2" transform="matrix(0.7064 -0.7078 0.7078 0.7064 -2.174 34.3815)" class="st0" width="13.1" height="1.3"/>
			</g>
		</g>
	</g>
	<g id="XMLID_54_">
		<g id="XMLID_55_">
			<g id="XMLID_56_">
				
					<rect id="XMLID_134_" x="31.3" y="21.3" transform="matrix(0.7058 -0.7084 0.7084 0.7058 -7.0157 29.4305)" class="st0" width="1.3" height="3.7"/>
			</g>
		</g>
	</g>
	<g id="XMLID_51_">
		<g id="XMLID_52_">
			<g id="XMLID_53_">
				
					<rect id="XMLID_133_" x="22.4" y="23.5" transform="matrix(0.7071 -0.7071 0.7071 0.7071 -9.5563 25.2563)" class="st0" width="6.6" height="1.3"/>
			</g>
		</g>
	</g>
	<g id="XMLID_48_">
		<g id="XMLID_49_">
			<g id="XMLID_50_">
				<rect id="XMLID_132_" x="19.7" y="39.3" class="st0" width="29.1" height="1.3"/>
			</g>
		</g>
	</g>
	<g id="XMLID_45_">
		<g id="XMLID_46_">
			<g id="XMLID_47_">
				<rect id="XMLID_131_" x="45.7" y="21.8" class="st0" width="1.3" height="18.2"/>
			</g>
		</g>
	</g>
	<g id="XMLID_42_">
		<g id="XMLID_43_">
			<g id="XMLID_44_">
				<rect id="XMLID_89_" x="34.2" y="30.9" class="st0" width="1.3" height="9.1"/>
			</g>
		</g>
	</g>
	<g id="XMLID_39_">
		<g id="XMLID_40_">
			<g id="XMLID_41_">
				<rect id="XMLID_88_" x="21.5" y="32.7" class="st0" width="1.3" height="7.3"/>
			</g>
		</g>
	</g>
	<g id="XMLID_36_">
		<g id="XMLID_37_">
			<g id="XMLID_38_">
				<rect id="XMLID_87_" x="28.7" y="27.2" class="st0" width="1.3" height="12.7"/>
			</g>
		</g>
	</g>
	<g id="XMLID_35_">
	</g>
	<g id="XMLID_34_">
	</g>
	<g id="XMLID_33_">
	</g>
	<g id="XMLID_32_">
	</g>
	<g id="XMLID_31_">
	</g>
	<g id="XMLID_30_">
	</g>
	<g id="XMLID_29_">
	</g>
	<g id="XMLID_28_">
	</g>
	<g id="XMLID_27_">
	</g>
	<g id="XMLID_26_">
	</g>
	<g id="XMLID_25_">
	</g>
	<g id="XMLID_24_">
	</g>
	<g id="XMLID_22_">
	</g>
	<g id="XMLID_21_">
	</g>
	<g id="XMLID_20_">
	</g>
</g>
<g id="XMLID_1_">
	<g id="XMLID_86_">
		<path id="XMLID_83_" class="st0" d="M17.5,23c-0.4,0-0.7,0.1-1,0.4s-0.4,0.6-0.4,1s0.1,0.7,0.4,1s0.6,0.4,1,0.4
			c0.8,0,1.4-0.6,1.4-1.4S18.3,23,17.5,23L17.5,23z M17.5,25.1c-0.4,0-0.8-0.4-0.8-0.8s0.4-0.8,0.8-0.8s0.8,0.3,0.8,0.8
			S17.9,25.1,17.5,25.1L17.5,25.1z M17.5,25.1L17.5,25.1z"/>
		<path id="XMLID_126_" class="st0" d="M17.5,25.9c-0.4,0-0.8-0.2-1.1-0.4c-0.3-0.3-0.5-0.7-0.5-1.1s0.2-0.8,0.5-1.1
			c0.3-0.3,0.7-0.4,1.1-0.4c0.8,0,1.5,0.7,1.5,1.5C19,25.2,18.4,25.9,17.5,25.9z M17.5,23.1c-0.3,0-0.7,0.1-0.9,0.4
			c-0.2,0.2-0.4,0.6-0.4,0.9s0.1,0.6,0.4,0.9c0.2,0.2,0.6,0.4,0.9,0.4c0.7,0,1.2-0.6,1.2-1.3C18.8,23.7,18.2,23.1,17.5,23.1z
			 M17.5,25.3c-0.5,0-0.9-0.4-0.9-0.9s0.4-0.9,0.9-0.9s0.9,0.4,0.9,0.9C18.4,24.8,18,25.3,17.5,25.3z M17.5,23.7
			c-0.4,0-0.6,0.3-0.6,0.6c0,0.3,0.3,0.6,0.6,0.6c0.3,0,0.6-0.3,0.6-0.6S17.9,23.7,17.5,23.7z"/>
	</g>
	<g id="XMLID_82_">
		<path id="XMLID_18_" class="st0" d="M17.9,18.3c-0.1-0.1-0.1-0.1-0.2-0.1h-1.6c-0.2,0-0.3,0.1-0.3,0.3V21c0,0.2,0.1,0.3,0.3,0.3
			h2.5c0.2,0,0.3-0.1,0.3-0.3v-1.7c0-0.1,0-0.2-0.1-0.2L17.9,18.3z M18.3,20.8h-1.9v-1.9h1.2l0.7,0.7C18.3,19.6,18.3,20.8,18.3,20.8
			z M18.3,20.8L18.3,20.8z"/>
		<path id="XMLID_120_" class="st0" d="M18.4,20.9h-2.2v-2.2h1.3l0.8,0.7v1.5H18.4z M16.5,20.6h1.6v-1.1L17.5,19h-1V20.6z"/>
	</g>
	<g id="XMLID_17_">
		<path id="XMLID_15_" class="st0" d="M10,23c-0.4,0-0.7,0.1-1,0.4s-0.4,0.6-0.4,1s0.1,0.7,0.4,1c0.3,0.3,0.6,0.4,1,0.4
			c0.8,0,1.4-0.6,1.4-1.4S10.7,23,10,23L10,23z M10,25.1c-0.4,0-0.8-0.4-0.8-0.8s0.4-0.8,0.8-0.8c0.4,0,0.8,0.3,0.8,0.8
			S10.4,25.1,10,25.1L10,25.1z M10,25.1L10,25.1z"/>
		<path id="XMLID_114_" class="st0" d="M10,25.9c-0.4,0-0.8-0.2-1.1-0.4c-0.3-0.3-0.5-0.7-0.5-1.1s0.2-0.8,0.5-1.1
			c0.3-0.3,0.7-0.4,1.1-0.4c0.8,0,1.5,0.7,1.5,1.5C11.5,25.2,10.8,25.9,10,25.9z M10,23.1c-0.3,0-0.7,0.1-0.9,0.4
			c-0.2,0.2-0.4,0.6-0.4,0.9s0.1,0.6,0.4,0.9c0.2,0.2,0.6,0.4,0.9,0.4c0.7,0,1.2-0.6,1.2-1.3S10.7,23.1,10,23.1z M10,25.3
			c-0.5,0-0.9-0.4-0.9-0.9s0.4-0.9,0.9-0.9s0.9,0.4,0.9,0.9C10.9,24.8,10.5,25.3,10,25.3z M10,23.7c-0.4,0-0.6,0.3-0.6,0.6
			c0,0.3,0.3,0.6,0.6,0.6s0.6-0.3,0.6-0.6S10.3,23.7,10,23.7z"/>
	</g>
	<g id="XMLID_14_">
		<path id="XMLID_12_" class="st0" d="M7.9,23.3H7.3v-0.8c0-0.2-0.1-0.3-0.3-0.3c-0.2,0-0.3,0.1-0.3,0.3v1.1c0,0.2,0.1,0.3,0.3,0.3
			h0.9c0.2,0,0.3-0.1,0.3-0.3C8.2,23.5,8.1,23.3,7.9,23.3L7.9,23.3z M7.9,23.3L7.9,23.3z"/>
		<path id="XMLID_109_" class="st0" d="M7.9,24.1H7c-0.2,0-0.4-0.2-0.4-0.4v-1.1c0-0.2,0.2-0.4,0.4-0.4c0.2,0,0.4,0.2,0.4,0.4v0.7
			h0.5c0.2,0,0.4,0.2,0.4,0.4C8.4,23.9,8.2,24.1,7.9,24.1z"/>
	</g>
	<g id="XMLID_11_">
		<path id="XMLID_9_" class="st0" d="M9.5,21.6c0-0.2-0.1-0.3-0.3-0.3H5.4c-0.2,0-0.3,0.1-0.3,0.3c0,0.2,0.1,0.3,0.3,0.3h3.8
			C9.3,22,9.5,21.8,9.5,21.6L9.5,21.6z M9.5,21.6L9.5,21.6z"/>
	</g>
	<g id="XMLID_8_">
		<path id="XMLID_6_" class="st0" d="M6,20.5h3.8c0.2,0,0.3-0.1,0.3-0.3c0-0.2-0.1-0.3-0.3-0.3H6l0,0c-0.2,0-0.3,0.1-0.3,0.3
			S5.9,20.5,6,20.5L6,20.5z M6,20.5L6,20.5z"/>
		<path id="XMLID_101_" class="st0" d="M6,20c-0.1,0-0.2,0.1-0.2,0.2v0.1l0.1,0.1l0,0h3.8c0.1,0,0.2-0.1,0.2-0.2v-0.1L9.8,20H6z"/>
	</g>
	<g id="XMLID_5_">
		<path id="XMLID_3_" class="st0" d="M6.7,19.1h3.8c0.2,0,0.3-0.1,0.3-0.3c0-0.2-0.1-0.3-0.3-0.3H6.7c-0.2,0-0.3,0.1-0.3,0.3
			C6.4,19,6.5,19.1,6.7,19.1L6.7,19.1z M6.7,19.1L6.7,19.1z"/>
		<path id="XMLID_97_" class="st0" d="M6.7,18.6c-0.1,0-0.2,0.1-0.2,0.2S6.6,19,6.7,19h3.8c0.1,0,0.2-0.1,0.2-0.2s-0.1-0.2-0.2-0.2
			C10.5,18.6,6.7,18.6,6.7,18.6z"/>
	</g>
	<g id="XMLID_2_">
		<path id="XMLID_90_" class="st0" d="M20.2,18.7L18,16.9c-0.1,0-0.1-0.1-0.2-0.1h-2.6v-1.1c0-0.2-0.1-0.3-0.3-0.3H7
			c-0.2,0-0.3,0.1-0.3,0.3V18c0,0.2,0.1,0.3,0.3,0.3c0.2,0,0.3-0.1,0.3-0.3v-2h7.3v7.3H12c-0.2,0-0.3,0.1-0.3,0.3
			c0,0.2,0.1,0.3,0.3,0.3h3.8c0.2,0,0.3-0.1,0.3-0.3c0-0.2-0.1-0.3-0.3-0.3h-0.6v-5.9h2.5l2,1.7v4.2h-0.3c-0.2,0-0.3,0.1-0.3,0.3
			c0,0.2,0.1,0.3,0.3,0.3H20c0.2,0,0.3-0.1,0.3-0.3v-4.7C20.3,18.9,20.2,18.8,20.2,18.7L20.2,18.7z M20.2,18.7L20.2,18.7z"/>
		<path id="XMLID_93_" class="st0" d="M15.8,24.1H12c-0.2,0-0.4-0.2-0.4-0.4c0-0.2,0.2-0.4,0.4-0.4h2.4v-7.1h-7V18
			c0,0.2-0.2,0.4-0.4,0.4c-0.2,0-0.4-0.2-0.4-0.4v-2.3c0-0.2,0.2-0.4,0.4-0.4h7.9c0.2,0,0.4,0.2,0.4,0.4v1h2.5c0.1,0,0.2,0,0.3,0.1
			l2.2,1.8c0.1,0.1,0.2,0.2,0.2,0.3v4.7c0,0.2-0.2,0.4-0.4,0.4h-0.6c-0.2,0-0.4-0.2-0.4-0.4c0-0.2,0.2-0.4,0.4-0.4h0.2v-4l-1.9-1.6
			h-2.3v5.6H16c0.2,0,0.4,0.2,0.4,0.4C16.2,23.9,16,24.1,15.8,24.1z"/>
	</g>
</g>
<path class="st1" d="M15.2,30.6c-1.1,0.3-2.3,0.4-3.5,0.3c-5.8-0.5-10.2-5.6-9.7-11.5S7.6,9.2,13.4,9.7c3.3,0.3,6.1,2,7.8,4.6"/>
</svg>
