<?xml version="1.0" encoding="utf-8"?>
<!-- Generator: Adobe Illustrator 19.0.0, SVG Export Plug-In . SVG Version: 6.00 Build 0)  -->
<svg version="1.1" id="Layer_1" xmlns="http://www.w3.org/2000/svg" xmlns:xlink="http://www.w3.org/1999/xlink" x="0px" y="0px"
	 viewBox="0 0 50 50" style="enable-background:new 0 0 50 50;" xml:space="preserve">
<style type="text/css">
	.st0{fill:#5F737B;}
</style>
<g>
	<g id="XMLID_1_">
		<g id="XMLID_17_">
			<path id="XMLID_23_" class="st0" d="M13.9,10.3c-0.4,0-0.8-0.1-1.1-0.4c-0.1-0.2-0.4-0.4-0.7-0.3l-0.5,0.1
				c-0.2,0.1-0.4,0.2-0.5,0.4s-0.1,0.4,0.1,0.7c0.4,0.7,1.1,1.1,2,1.1V13c0,0.4,0.3,0.7,0.7,0.7s0.7-0.3,0.7-0.7v-1.1
				c0.6-0.1,1.1-0.4,1.5-0.7c0.4-0.4,0.7-1,0.7-1.6c0-0.4-0.1-0.8-0.4-1.1c-0.2-0.3-0.5-0.5-0.8-0.7c-0.3-0.1-0.9-0.3-1.6-0.4
				c-0.3-0.1-0.5-0.1-0.6-0.2S13.3,7.1,13.3,7c0-0.3,0.4-0.4,0.6-0.4c0.4,0,0.6,0.1,0.8,0.3c0.1,0.2,0.4,0.3,0.8,0.2L15.9,7
				c0.2-0.1,0.4-0.2,0.4-0.5c0.1-0.2,0-0.4-0.1-0.7c-0.4-0.4-0.8-0.6-1.4-0.8V4.2c0-0.4-0.3-0.7-0.7-0.7s-0.7,0.3-0.7,0.7V5
				c-0.7,0.1-1.2,0.4-1.5,0.8c-0.4,0.4-0.5,0.9-0.5,1.4s0.1,0.9,0.4,1.3s1.1,0.7,2.3,0.9c0.3,0.1,0.5,0.1,0.6,0.2
				c0.1,0.1,0.1,0.1,0.1,0.3C14.7,9.9,14.7,10.3,13.9,10.3z"/>
		</g>
		<g id="XMLID_16_">
		</g>
		<g id="XMLID_15_">
		</g>
		<g id="XMLID_14_">
		</g>
		<g id="XMLID_13_">
		</g>
		<g id="XMLID_12_">
		</g>
		<g id="XMLID_11_">
		</g>
		<g id="XMLID_10_">
		</g>
		<g id="XMLID_9_">
		</g>
		<g id="XMLID_8_">
		</g>
		<g id="XMLID_7_">
		</g>
		<g id="XMLID_6_">
		</g>
		<g id="XMLID_5_">
		</g>
		<g id="XMLID_4_">
		</g>
		<g id="XMLID_3_">
		</g>
		<g id="XMLID_2_">
		</g>
	</g>
</g>
<g>
	<path class="st0" d="M14,16.4c-4.3,0-7.8-3.5-7.8-7.8S9.7,0.8,14,0.8s7.8,3.5,7.8,7.8S18.3,16.4,14,16.4z M14,2.8
		c-3.2,0-5.8,2.6-5.8,5.8s2.6,5.8,5.8,5.8s5.8-2.6,5.8-5.8S17.2,2.8,14,2.8z"/>
</g>
<g>
	<path class="st0" d="M44.8,47.3H13V18.7c0-0.6,0.4-1,1-1s1,0.4,1,1v26.5h27.8V7.8H24.1c-0.6,0-1-0.4-1-1s0.4-1,1-1h20.8v41.5H44.8z
		"/>
</g>
<g>
	<path class="st0" d="M38.3,19.1H19.5c-0.6,0-1-0.4-1-1s0.4-1,1-1h18.8c0.6,0,1,0.4,1,1S38.9,19.1,38.3,19.1z"/>
</g>
<g>
	<path class="st0" d="M38.3,25.5H19.5c-0.6,0-1-0.4-1-1s0.4-1,1-1h18.8c0.6,0,1,0.4,1,1S38.9,25.5,38.3,25.5z"/>
</g>
<g>
	<path class="st0" d="M38.3,31.8H19.5c-0.6,0-1-0.4-1-1s0.4-1,1-1h18.8c0.6,0,1,0.4,1,1S38.9,31.8,38.3,31.8z"/>
</g>
<g>
	<path class="st0" d="M38.3,38.1H19.5c-0.6,0-1-0.4-1-1s0.4-1,1-1h18.8c0.6,0,1,0.4,1,1S38.9,38.1,38.3,38.1z"/>
</g>
</svg>
