<?xml version="1.0" encoding="utf-8"?>
<!-- Generator: Adobe Illustrator 19.0.0, SVG Export Plug-In . SVG Version: 6.00 Build 0)  -->
<svg version="1.1" id="Capa_1" xmlns="http://www.w3.org/2000/svg" xmlns:xlink="http://www.w3.org/1999/xlink" x="0px" y="0px"
	 viewBox="0 0 50 50" style="enable-background:new 0 0 50 50;" xml:space="preserve">
<style type="text/css">
	.st0{fill:#5F737B;}
</style>
<g>
	<path class="st0" d="M16.5,22.6h11.1c0.4,0,0.8-0.4,0.8-0.8S28,21,27.6,21H16.5c-0.4,0-0.8,0.4-0.8,0.8S16.1,22.6,16.5,22.6z"/>
	<path class="st0" d="M31.9,26.6H12.1c-0.4,0-0.8,0.4-0.8,0.8s0.4,0.8,0.8,0.8h19.8c0.4,0,0.8-0.4,0.8-0.8
		C32.7,26.9,32.4,26.6,31.9,26.6z"/>
	<path class="st0" d="M31.9,32.1H12.1c-0.4,0-0.8,0.4-0.8,0.8c0,0.4,0.4,0.8,0.8,0.8h19.8c0.4,0,0.8-0.4,0.8-0.8
		C32.7,32.5,32.4,32.1,31.9,32.1z"/>
	<path class="st0" d="M45.3,30.6c2.1-3,3.3-6.4,3.3-10C48.5,10.4,39.3,2,28,2C20.2,2,13,6.1,9.5,12.4c-5.1,3.4-8.4,8.8-8.4,15
		c0,3.6,1.1,7,3.3,10c-0.4,4.4-1.5,7.7-3,9.2c-0.2,0.2-0.3,0.6-0.1,0.9C1.4,47.8,1.7,48,2,48h0.1c0.3,0,6.7-1,11.3-3.6
		c2.6,1.1,5.4,1.6,8.3,1.6c6.7,0,12.7-2.9,16.5-7.5c4.4,2,9.3,2.7,9.5,2.7h0.1c0.3,0,0.6-0.2,0.7-0.4c0.2-0.3,0.1-0.7-0.1-0.9
		C46.8,38.3,45.7,35,45.3,30.6z M21.6,44.3c-2.3,0-4.5-0.4-6.6-1.1c2.6-1.7,2.6-1.8,2.6-2.2c0-0.3-0.2-0.5-0.4-0.7
		c-0.4-0.2-0.8-0.1-1.1,0.2c-0.4,0.3-2,1.3-3.4,2.2l0,0c-2.9,1.8-6.8,2.8-9.2,3.3c1.4-2.5,2-6,2.2-8.8c0-0.2,0-0.4-0.2-0.5
		c-2-2.8-3.1-6-3.1-9.3c0-5.7,3.2-10.8,8.1-13.8c0.3-0.2,0.6-0.4,0.9-0.6c0.1,0,0.1-0.1,0.2-0.1c0.3-0.2,0.7-0.3,1-0.5
		c0.1-0.1,0.3-0.1,0.4-0.2c0.3-0.2,0.7-0.3,1.1-0.4c0.1,0,0.3-0.1,0.4-0.1c0.3-0.1,0.6-0.2,0.9-0.3c0.1,0,0.3-0.1,0.4-0.1
		c0.4-0.1,0.7-0.2,1.1-0.3c0.1,0,0.3-0.1,0.4-0.1c0.3-0.1,0.7-0.1,1-0.2c0.1,0,0.2,0,0.2,0c0.4-0.1,0.8-0.1,1.3-0.1
		c0.1,0,0.2,0,0.3,0c0.4,0,0.9,0,1.3,0c8.5,0,15.7,5,18.1,11.9c0.6,1.6,0.9,3.3,0.9,5c0,0.4,0,0.8,0,1.1c0,0.1,0,0.2,0,0.3
		c0,0.4-0.1,0.7-0.1,1.1v0.1c-0.1,0.4-0.1,0.7-0.2,1.1c0,0.1-0.1,0.2-0.1,0.3c-0.1,0.3-0.2,0.6-0.3,1c0,0.1,0,0.1-0.1,0.2
		c-0.1,0.3-0.2,0.6-0.4,0.9c0,0.1-0.1,0.2-0.1,0.3c-0.1,0.3-0.3,0.6-0.5,1c0,0.1-0.1,0.1-0.1,0.2c-0.1,0.3-0.3,0.5-0.5,0.8
		c-0.1,0.1-0.1,0.2-0.2,0.3c-0.2,0.3-0.4,0.6-0.6,0.9C33.9,41.4,28.2,44.3,21.6,44.3z M39.1,37.1L39.1,37.1c0.3-0.4,0.5-0.6,0.6-0.9
		c0.1-0.2,0.2-0.3,0.3-0.5c0.1-0.2,0.2-0.4,0.3-0.5c0.1-0.2,0.2-0.3,0.2-0.5c0.1-0.3,0.2-0.5,0.3-0.8c0.1-0.2,0.1-0.4,0.2-0.5
		c0.1-0.2,0.2-0.5,0.2-0.7c0-0.1,0.1-0.3,0.1-0.4c0.1-0.3,0.1-0.5,0.2-0.8c0-0.1,0.1-0.2,0.1-0.3c0.1-0.4,0.2-0.7,0.2-1.1
		c0-0.1,0-0.2,0-0.3c0-0.3,0.1-0.6,0.1-0.9c0-0.1,0-0.2,0-0.3c0-0.4,0-0.8,0-1.2c0-10.2-9.2-18.5-20.6-18.5c-0.4,0-0.8,0-1.1,0
		c-0.1,0-0.3,0-0.4,0c-0.2,0-0.5,0-0.7,0.1c-0.2,0-0.3,0-0.5,0.1c-0.2,0-0.4,0-0.6,0.1c-0.2,0-0.4,0.1-0.6,0.1s-0.3,0.1-0.5,0.1
		s-0.4,0.1-0.6,0.1c-0.1,0-0.3,0.1-0.4,0.1c-0.2,0.1-0.4,0.1-0.7,0.2c-0.1,0-0.2,0.1-0.3,0.1c-0.8,0.2-1.6,0.5-2.4,0.9
		c-0.1,0-0.1,0-0.2,0.1c-0.1,0-0.1,0.1-0.2,0.1C15.6,6.7,21.4,4,27.6,4c10.5,0,19,7.6,19,17c0,3.3-1.1,6.5-3.1,9.3
		c-0.1,0.2-0.2,0.3-0.2,0.5c0.2,2.8,0.8,6.3,2.2,8.8C44.2,38.9,41.6,38.3,39.1,37.1z"/>
</g>
</svg>
