<?xml version="1.0" encoding="utf-8"?>
<!-- Generator: Adobe Illustrator 19.0.0, SVG Export Plug-In . SVG Version: 6.00 Build 0)  -->
<svg version="1.1" id="Layer_1" xmlns="http://www.w3.org/2000/svg" xmlns:xlink="http://www.w3.org/1999/xlink" x="0px" y="0px"
	 viewBox="0 0 50 50" style="enable-background:new 0 0 50 50;" xml:space="preserve">
<style type="text/css">
	.st0{fill:#5F737B;}
</style>
<path id="XMLID_9_" class="st0" d="M36.4,12.9c-0.4,0-0.7,0-1.1,0.1c-1.5-4.8-5.9-8.2-11-8.2s-9.5,3.3-11,8.1c0,0-3.7,0.8-4.1,1
	c-1.3,0.6-2.5,1.4-3.4,2.5C-1.1,23.7,4.3,36,14.2,36c2.4,0,4.8-0.7,6.7-2.2c0.3-0.2,0.4-0.7,0.2-1.1c-0.2-0.3-0.7-0.4-1.1-0.2
	c-1.7,1.2-3.7,1.9-5.8,1.9c-4.8,0-8.9-3.6-9.8-8.2c-1-4.6,1.6-9.5,6-11.2c1.1-0.4,2.3-0.6,3.5-0.6c0.1,0,0.1,0,0.2,0h0.1
	c0.1,0,0.1-0.1,0.2-0.1c0,0,0,0,0.1-0.1c0,0,0.1-0.1,0.1-0.2c0,0,0-0.1,0.1-0.1c0,0,0,0,0-0.1c1.1-4.4,5.1-7.5,9.7-7.5
	s8.6,3.1,9.7,7.6c0,0,0,0,0,0.1s0.1,0.2,0.2,0.3l0.1,0.1c0.1,0,0.2,0.1,0.3,0.1h0.1c0.1,0,0.1,0,0.2,0c0.5-0.1,0.9-0.1,1.4-0.1
	c5.5,0,10,4.5,10,10s-4.5,10-10,10c-2.1,0-4.1-0.6-5.8-1.9c-0.3-0.2-0.8-0.2-1.1,0.2c-0.2,0.3-0.2,0.8,0.2,1.1
	c2,1.4,4.3,2.2,6.7,2.2c6.4,0,11.5-5.2,11.5-11.5S42.7,12.9,36.4,12.9z"/>
<path id="XMLID_6_" class="st0" d="M30.3,37.7c-0.3-0.3-0.8-0.2-1.1,0.2L26.5,41V29.3c0-0.4-0.3-0.8-0.8-0.8S25,28.9,25,29.3v11.8
	l-2.2-2.9c-0.3-0.3-0.8-0.4-1.1-0.1c-0.3,0.3-0.4,0.8-0.1,1.1L26,45l4.5-6.1C30.7,38.5,30.6,38,30.3,37.7z"/>
</svg>
