<?xml version="1.0" encoding="utf-8"?>
<!-- Generator: Adobe Illustrator 19.0.0, SVG Export Plug-In . SVG Version: 6.00 Build 0)  -->
<svg version="1.1" id="Capa_1" xmlns="http://www.w3.org/2000/svg" xmlns:xlink="http://www.w3.org/1999/xlink" x="0px" y="0px"
	 viewBox="0 0 50 50" style="enable-background:new 0 0 50 50;" xml:space="preserve">
<style type="text/css">
	.st0{fill:#5F737B;}
</style>
<g>
	<g>
		<path class="st0" d="M38,20.6c-0.2-0.1-0.3-0.1-0.4-0.1s-0.1,0-0.2,0c-0.2-0.1-0.5-0.2-0.8-0.2c-0.6,0-1.1,0.4-1.2,1s0,1,0.2,1.2
			c0.2,0.3,0.5,0.6,1.1,0.7c0.2,0,0.3,0,0.5,0.1h0.3h0.1c0,0,0,0,0.1,0h0.2c1,0,1.2-0.7,1.3-1C39.3,21.8,39.1,21.1,38,20.6z"/>
		<path class="st0" d="M32.4,5.5h-6.7c-1.6,0-2.9,1.3-2.9,2.9s1.3,2.9,2.9,2.9h6.7c1.6,0,2.9-1.3,2.9-2.9S34,5.5,32.4,5.5z"/>
		<path class="st0" d="M45.4,11.3c-0.2-0.2-4.5-5.1-7.6-6.7c-2.2-1.1-3.2-1.6-5-1.9c-1.4-0.3-2.6-0.4-3.8-0.4c-1.8,0-3.4,0.3-4.9,1
			c-2.7,1.2-4,3.9-3.2,6.9c0.6,2.3,2.4,3.5,3.9,4.4c1.3,0.8,2.4,1.3,3.6,1.5c1,0.2,1.6,0.7,1.9,1.6s0.2,1.9,0.1,3v0.1
			c0,0.2-0.1,0.7-0.3,1.2c-0.5,2-0.8,3.4-0.2,4.1c0.2,0.3,0.6,0.5,1,0.5c0.3,0,0.6-0.1,0.8-0.2c0.2,3.1,0.3,6.2,0.4,9.5l0.2,3.4
			c0,0.1,0,0.2,0,0.3s0,0.2,0,0.2c-1.4,1.5-2.3,2.7-2.5,4.9c-0.2,2,0.7,3.6,2.4,4.1c0.5,0.2,1,0.2,1.5,0.2c0.3,0,0.6,0,0.9-0.1
			c0.3,0,0.5-0.1,0.8-0.2l1.4-0.5c0.7-0.3,1.3-0.6,1.9-1c1.2-0.7,2-1.8,2.5-3.3c0.1-0.2,0.1-0.4,0.2-0.7c0.2-0.5,0.4-1.1,0.5-1.7
			c0.5-2.1,0.6-4.3,0.8-6.4c0-0.7,0.1-1.4,0.2-2.1c0.2-2.6,0.2-7.7,0.2-7.9V25C43,23.4,43,21.8,43,20.2c0-0.9,0-1.8,0-2.7v-0.1
			c0-0.2,0-0.5,0.1-0.5c0.3-0.4,0.6-0.7,0.9-1.1c0.3-0.5,0.7-0.9,1.1-1.3C45.8,14,46.2,12.3,45.4,11.3z M41.2,33.1
			c-0.1,0.7-0.1,1.4-0.2,2.1c-0.1,2-0.3,4.1-0.7,6.1c-0.1,0.5-0.3,1-0.5,1.5c-0.1,0.2-0.1,0.5-0.2,0.7c-0.4,1.2-0.9,1.9-1.8,2.4
			c-1.1,0.6-2.2,1.2-3.6,1.4c-0.6,0.1-1.1,0.1-1.7-0.1c-1.4-0.4-1.4-1.9-1.3-2.5c0.2-1.7,0.9-2.6,2.1-4c0.5-0.5,0.4-1.1,0.4-1.4l0,0
			c0.9-3,3.8-10.1,7.6-11C41.4,30,41.3,31.9,41.2,33.1z M44,13.6c-0.5,0.5-0.9,1-1.3,1.5c-0.3,0.3-0.5,0.7-0.8,1
			c-0.5,0.5-0.5,1.2-0.5,1.6v0.1c0,0.9,0,1.8,0,2.6c0,1.6,0,3.3,0.1,4.9c0,0.1,0,0.7,0,1.5c-3.6,0.6-6.3,5.3-7.8,8.7
			c-0.2-3.4-0.3-6.7-0.5-10c0-0.6-0.4-0.9-1-0.9c-0.3,0-0.6,0.1-0.9,0.3c-0.1,0-0.2,0.1-0.2,0.1c0-0.6,0.3-2,0.5-2.7
			c0.2-0.6,0.3-1.1,0.3-1.4v-0.1c0.1-1.2,0.2-2.4-0.2-3.6c-0.5-1.4-1.6-2.3-3.1-2.6c-1-0.2-2-0.6-3.1-1.3c-1.6-1-2.8-1.9-3.2-3.5
			c-0.5-1.8-0.1-4.1,2.3-5.1c1.3-0.6,2.8-0.8,4.3-0.8c1,0,2.2,0.1,3.5,0.4C34,4.6,35,5,37,6.1c2.8,1.5,7.1,6.3,7.1,6.3
			C44.4,12.5,44.3,13.3,44,13.6z"/>
		<rect x="4.2" y="22.5" class="st0" width="1" height="15"/>
		<rect x="16" y="22.5" class="st0" width="1" height="15"/>
		<rect x="6.6" y="22.5" class="st0" width="0.5" height="15"/>
		<rect x="17.5" y="22.5" class="st0" width="0.5" height="15"/>
		<rect x="14.4" y="22.5" class="st0" width="0.5" height="15"/>
		<rect x="11.9" y="22.5" class="st0" width="0.5" height="15"/>
		<rect x="8.4" y="22.5" class="st0" width="1" height="15"/>
		<rect x="12.9" y="22.5" class="st0" width="1" height="15"/>
		<rect x="9.8" y="22.5" class="st0" width="0.5" height="15"/>
		<rect x="18.9" y="22.5" class="st0" width="0.5" height="15"/>
		<rect x="20.6" y="22.5" class="st0" width="1" height="15"/>
		<rect x="22" y="22.5" class="st0" width="0.5" height="15"/>
	</g>
</g>
</svg>
