<?xml version="1.0" encoding="utf-8"?>
<!-- Generator: Adobe Illustrator 19.0.0, SVG Export Plug-In . SVG Version: 6.00 Build 0)  -->
<svg version="1.1" id="Capa_1" xmlns="http://www.w3.org/2000/svg" xmlns:xlink="http://www.w3.org/1999/xlink" x="0px" y="0px"
	 viewBox="0 0 50 50" style="enable-background:new 0 0 50 50;" xml:space="preserve">
<style type="text/css">
	.st0{fill:#6E6E6E;}
</style>
<g>
	<path class="st0" d="M38.1,11.1H24.8c-0.4,0-0.7,0.3-0.7,0.7s0.3,0.7,0.7,0.7H38c0.4,0,0.7-0.3,0.7-0.7S38.5,11.1,38.1,11.1z"/>
	<path class="st0" d="M38.1,21.4H24.8c-0.4,0-0.7,0.3-0.7,0.7c0,0.4,0.3,0.7,0.7,0.7H38c0.4,0,0.7-0.3,0.7-0.7
		C38.8,21.8,38.5,21.4,38.1,21.4z"/>
	<path class="st0" d="M20.1,7.6c-0.3-0.3-0.8-0.2-1,0.1l-4.6,5.4L11.7,11c-0.3-0.2-0.8-0.2-1,0.1s-0.2,0.8,0.1,1l3.4,2.5
		c0.1,0.1,0.3,0.1,0.4,0.1c0.2,0,0.4-0.1,0.6-0.3l5-5.9C20.5,8.4,20.4,7.9,20.1,7.6z"/>
	<path class="st0" d="M20.1,17.9c-0.3-0.3-0.8-0.2-1,0.1l-4.6,5.4l-2.8-2.1c-0.3-0.2-0.8-0.2-1,0.1c-0.2,0.3-0.2,0.8,0.1,1l3.4,2.5
		c0.1,0.1,0.3,0.1,0.4,0.1c0.2,0,0.4-0.1,0.6-0.3l5-5.9C20.5,18.7,20.4,18.2,20.1,17.9z"/>
	<path class="st0" d="M19.1,29l-4.6,5.4l-2.8-2.1c-0.3-0.2-0.8-0.2-1,0.1s-0.2,0.8,0.1,1l3.4,2.5c0.1,0.1,0.3,0.1,0.4,0.1
		c0.2,0,0.4-0.1,0.6-0.3l5-5.9c0.3-0.3,0.2-0.8-0.1-1C19.8,28.7,19.4,28.7,19.1,29z"/>
	<path class="st0" d="M24.8,40.5H14c-4.1,0-7.5-3.4-7.5-7.5V11.3c0-4.1,3.4-7.5,7.5-7.5h21.8c4.1,0,7.5,3.4,7.5,7.5v17.6
		c0,0.4,0.3,0.7,0.7,0.7s0.7-0.3,0.7-0.7V11.3c0-4.9-4-8.9-8.9-8.9H14c-4.9,0-8.9,4-8.9,8.9v21.8c0,4.9,4,8.9,8.9,8.9h10.8
		c0.4,0,0.7-0.3,0.7-0.7C25.6,40.9,25.3,40.5,24.8,40.5z"/>
</g>
<path class="st0" d="M37.2,36.9V32c0-0.3-0.2-0.5-0.5-0.5s-0.5,0.2-0.5,0.5v4.9c-0.7,0.2-1.2,0.7-1.4,1.4h-3.5
	c-0.3,0-0.5,0.2-0.5,0.5s0.2,0.5,0.5,0.5h3.5c0.2,0.8,1,1.4,1.9,1.4c1.1,0,2-0.9,2-2C38.7,37.9,38.1,37.2,37.2,36.9z M36.8,39.7
	c-0.5,0-1-0.5-1-1s0.5-1,1-1s1,0.5,1,1C37.8,39.3,37.3,39.7,36.8,39.7z"/>
<g>
	<path class="st0" d="M44.8,38.4c-0.2-4.2-3.7-7.6-8-7.6c-4.3,0-7.8,3.4-8,7.6c0.2-4.3,3.7-7.7,8-7.7C41.1,30.7,44.6,34.1,44.8,38.4
		z"/>
	<path class="st0" d="M36.8,29.2c-5.3,0-9.5,4.3-9.5,9.5s4.3,9.5,9.5,9.5c5.2,0,9.5-4.3,9.5-9.5S42,29.2,36.8,29.2z M36.8,46.8
		c-4.3,0-7.8-3.4-8-7.7c0-0.1,0-0.2,0-0.3c0-0.1,0-0.3,0-0.4c0.2-4.2,3.7-7.6,8-7.6c4.3,0,7.8,3.4,8,7.6c0,0.1,0,0.3,0,0.4
		c0,0.1,0,0.2,0,0.3C44.6,43.4,41.1,46.8,36.8,46.8z"/>
</g>
</svg>
