<?xml version="1.0" encoding="utf-8"?>
<!-- Generator: Adobe Illustrator 19.0.0, SVG Export Plug-In . SVG Version: 6.00 Build 0)  -->
<svg version="1.1" id="Capa_1" xmlns="http://www.w3.org/2000/svg" xmlns:xlink="http://www.w3.org/1999/xlink" x="0px" y="0px"
	 viewBox="230 -230 510 510" style="enable-background:new 230 -230 510 510;" xml:space="preserve">
<style type="text/css">
	.st0{opacity:0.9;fill:#6E6E6E;enable-background:new    ;}
	.st1{fill:#6E6E6E;}
	.st2{fill:#6E6E6E;stroke:#000000;stroke-miterlimit:10;}
</style>
<g>
	<g id="history">
		<path class="st0" d="M536.7-36v-64.3h-23v78l71.9,42.8l12.2-19.9L536.7-36z M536.7-176.8c-53.6,0-101,29.1-125.5,73.4L376-138.6
			v99.5h99.5l-42.8-42.8c19.9-38.3,58.1-64.3,104-64.3c62.7,0,114.8,52,114.8,114.8c0,40-21.2,75.7-52.8,96.3l24.7,20.5
			C659.1,58.7,682,16.1,682-31.4C682-111,616.2-176.8,536.7-176.8z"/>
	</g>
</g>
<g>
	<g id="Settings_1_">
		<g>
			<path class="st1" d="M576.4,89.1c-0.4-3.5-4.5-6.1-8-6.1c-11.4,0-21.4-6.7-25.7-17c-4.3-10.6-1.5-22.9,6.9-30.7
				c2.7-2.4,3-6.5,0.8-9.4c-5.8-7.4-12.4-14.1-19.6-19.8c-2.8-2.3-7-2-9.4,0.8c-7.4,8.2-20.7,11.2-30.9,6.9
				c-10.7-4.5-17.4-15.3-16.7-26.9c0.2-3.6-2.4-6.8-6.1-7.2c-9.3-1.1-18.6-1.1-27.9-0.1c-3.6,0.4-6.3,3.5-6.1,7.1
				c0.4,11.5-6.4,22.1-17,26.5c-10.1,4.1-23.3,1.1-30.7-7c-2.4-2.7-6.5-3-9.4-0.8c-7.4,5.8-14.2,12.5-20.1,19.8
				c-2.3,2.8-2,7,0.7,9.4c8.6,7.8,11.4,20.2,6.9,30.9c-4.3,10.2-14.9,16.8-27,16.8c-3.9-0.1-6.7,2.5-7.2,6.1
				c-1.1,9.3-1.1,18.8-0.1,28.2c0.4,3.5,4.6,6.1,8.1,6.1c10.8-0.3,21.2,6.4,25.5,17s1.5,22.9-6.9,30.7c-2.7,2.4-3,6.5-0.8,9.3
				c5.8,7.3,12.4,14,19.6,19.8c2.8,2.3,7,2,9.4-0.7c7.4-8.2,20.7-11.2,30.9-7c10.7,4.5,17.4,15.3,16.8,26.9
				c-0.2,3.6,2.5,6.8,6.1,7.2c4.7,0.6,9.5,0.8,14.3,0.8c4.5,0,9.1-0.2,13.6-0.8c3.6-0.4,6.3-3.5,6.1-7.1c-0.4-11.5,6.4-22.1,17-26.4
				c10.2-4.2,23.3-1.1,30.7,7c2.5,2.7,6.5,3,9.4,0.8c7.4-5.8,14.2-12.5,20.1-19.8c2.3-2.8,2-7-0.7-9.4c-8.6-7.8-11.4-20.3-6.9-30.9
				c4.2-10.1,14.4-16.8,25.4-16.8h1.5c3.6,0.3,6.8-2.4,7.3-6.1C577.5,108,577.5,98.5,576.4,89.1z M453.4,144.5
				c-22.8,0-41.4-18.6-41.4-41.4s18.6-41.4,41.4-41.4s41.4,18.6,41.4,41.4C494.7,126,476.2,144.5,453.4,144.5z"/>
		</g>
	</g>
</g>
<line class="st2" x1="623.3" y1="85.3" x2="598.6" y2="64.8"/>
</svg>
