<?xml version="1.0" encoding="utf-8"?>
<!-- Generator: Adobe Illustrator 19.0.0, SVG Export Plug-In . SVG Version: 6.00 Build 0)  -->
<svg version="1.1" id="Layer_1" xmlns="http://www.w3.org/2000/svg" xmlns:xlink="http://www.w3.org/1999/xlink" x="0px" y="0px"
	 viewBox="0 0 48.8 33.8" style="enable-background:new 0 0 48.8 33.8;" xml:space="preserve">
<style type="text/css">
	.st0{fill:#FFFFFF;}
</style>
<path id="XMLID_2_" class="st0" d="M6.5,8.3h-4c-1,0-1.9-0.8-1.9-1.9V3.1c0-1,0.8-1.9,1.9-1.9h4c1,0,1.9,0.8,1.9,1.9v3.3
	C8.4,7.4,7.5,8.3,6.5,8.3z M48.1,5.8V3.6c0-1.3-1.1-2.4-2.4-2.4H13.1c-1.3,0-2.4,1.1-2.4,2.4v2.2c0,1.3,1.1,2.4,2.4,2.4h32.6
	C47,8.3,48.1,7.2,48.1,5.8z M8.4,18.6v-3.3c0-1-0.8-1.9-1.9-1.9h-4c-1,0-1.9,0.8-1.9,1.9v3.3c0,1,0.8,1.9,1.9,1.9h4
	C7.5,20.5,8.4,19.7,8.4,18.6z M48.1,18.1v-2.2c0-1.3-1.1-2.4-2.4-2.4H13.1c-1.3,0-2.4,1.1-2.4,2.4v2.2c0,1.3,1.1,2.4,2.4,2.4h32.6
	C47,20.5,48.1,19.4,48.1,18.1z M8.4,30.9v-3.3c0-1-0.8-1.9-1.9-1.9h-4c-1,0-1.9,0.8-1.9,1.9v3.3c0,1,0.8,1.9,1.9,1.9h4
	C7.5,32.8,8.4,31.9,8.4,30.9z M48.1,30.4v-2.2c0-1.3-1.1-2.4-2.4-2.4H13.1c-1.3,0-2.4,1.1-2.4,2.4v2.2c0,1.3,1.1,2.4,2.4,2.4h32.6
	C47,32.8,48.1,31.7,48.1,30.4z"/>
</svg>
