<?xml version="1.0" encoding="utf-8"?>
<!-- Generator: Adobe Illustrator 19.0.0, SVG Export Plug-In . SVG Version: 6.00 Build 0)  -->
<svg version="1.1" xmlns="http://www.w3.org/2000/svg" xmlns:xlink="http://www.w3.org/1999/xlink" x="0px" y="0px"
	 viewBox="0 0 50 50" style="enable-background:new 0 0 50 50;" xml:space="preserve">
<style type="text/css">
	.st0{display:none;}
	.st1{display:inline;}
	.st2{fill:#FFFFFF;}
</style>
<g id="Layer_1" class="st0">
	<g id="XMLID_1_" class="st1">
		<path id="XMLID_5_" class="st2" d="M44.4,43.5H3.7v-36h40.7V43.5z M8.5,38.7h31V12.3h-31V38.7z"/>
	</g>
	<g id="XMLID_3_" class="st1">
		<path id="XMLID_4_" class="st2" d="M19.9,37.4l-1.1-3.9c-1.3-4.6-7-7.1-7.1-7.1l1.9-4.4c0.3,0.1,5.4,2.3,8.3,6.9l13-12.4l3.3,3.5
			L19.9,37.4z"/>
	</g>
</g>
<g id="Layer_2">
	<g id="XMLID_20_">
		<g id="XMLID_36_">
			<path id="XMLID_37_" class="st2" d="M33,6.9l-0.8,0.8l-1.8-1.8l-1.7,1.7l-1.8-1.8L1.5,31.1l12.9,12.9l1.7-1.7l1.8,1.8l1.7-1.7
				l0.9,0.9L45,18.9L33,6.9z M14.4,42.2L3.3,31.1L26.8,7.6l0.9,0.9L5,31.3l10.2,10.2L14.4,42.2z M8.6,31.3l10.2,10.2L18,42.4
				L6.9,31.3L30.4,7.7l0.9,0.9L8.6,31.3z M30.9,29.3c-2.3,2.3-6,2.3-8.2,0c-2.3-2.3-2.3-6,0-8.2c2.3-2.3,6-2.3,8.2,0
				C33.2,23.3,33.2,27,30.9,29.3z M25.3,23l1.4,1.4l0.2-0.2c0.7-0.7,1.4-1,1.8-1.1c0.5,0,1,0.2,1.5,0.8c0.6,0.6,0.9,1.2,0.8,1.7
				c0,0.5-0.4,1.1-1.1,1.8l-0.2,0.2l0.6,0.6l-0.6,0.6l-0.6-0.6l-0.2,0.2c-0.7,0.7-1.3,1-1.8,1.1c-0.5,0-1-0.2-1.6-0.8l-0.2-0.2l1-1
				l0.1,0.1c0.3,0.3,0.6,0.5,0.8,0.5c0.2,0,0.5-0.2,0.9-0.6l0.1-0.1l-1.5-1.5c-0.8,0.8-1.4,1.2-1.9,1.2c-0.5,0.1-1-0.2-1.6-0.8
				c-0.6-0.6-0.8-1.1-0.8-1.6c0.1-0.5,0.5-1.1,1.2-1.9l-0.5-0.5l0.6-0.6l0.5,0.5c0.7-0.7,1.3-1.1,1.8-1.2c0.5-0.1,1,0.2,1.5,0.7
				l0.1,0.1L27,22.8l-0.1-0.1c-0.4-0.4-0.9-0.4-1.4,0.2L25.3,23z M24.7,23.7l-0.1,0.1c-0.6,0.6-0.6,1.1-0.2,1.5
				c0.5,0.5,1,0.4,1.5-0.1c0,0,0.1-0.1,0.1-0.1L24.7,23.7z M29.1,26.8l0.1-0.1c0.6-0.6,0.7-1.2,0.1-1.7c-0.3-0.3-0.5-0.4-0.8-0.4
				c-0.2,0-0.6,0.3-1,0.7L29.1,26.8z"/>
		</g>
		<g id="XMLID_35_">
		</g>
		<g id="XMLID_34_">
		</g>
		<g id="XMLID_33_">
		</g>
		<g id="XMLID_32_">
		</g>
		<g id="XMLID_31_">
		</g>
		<g id="XMLID_30_">
		</g>
		<g id="XMLID_29_">
		</g>
		<g id="XMLID_28_">
		</g>
		<g id="XMLID_27_">
		</g>
		<g id="XMLID_26_">
		</g>
		<g id="XMLID_25_">
		</g>
		<g id="XMLID_24_">
		</g>
		<g id="XMLID_23_">
		</g>
		<g id="XMLID_22_">
		</g>
		<g id="XMLID_21_">
		</g>
	</g>
</g>
</svg>
