<?xml version="1.0" encoding="utf-8"?>
<!-- Generator: Adobe Illustrator 19.0.0, SVG Export Plug-In . SVG Version: 6.00 Build 0)  -->
<svg version="1.1" xmlns="http://www.w3.org/2000/svg" xmlns:xlink="http://www.w3.org/1999/xlink" x="0px" y="0px"
	 viewBox="0 0 139 33" style="enable-background:new 0 0 139 33;" xml:space="preserve">
<style type="text/css">
	.st0{fill:#FFFFFF;}
	.st1{display:none;}
	.st2{display:inline;}
	.st3{fill:none;stroke:#DDB300;stroke-width:6;stroke-miterlimit:10;}
	.st4{fill:#DDB300;}
</style>
<g id="Layer_1">
</g>
<g id="Layer_5">
</g>
<g id="Layer_4">
	<g id="XMLID_5_">
		<g id="XMLID_155_">
			<path id="XMLID_167_" class="st0" d="M114.6,18.8c-0.1-0.5-0.3-0.9-0.7-1.3c-0.3-0.4-0.7-0.6-1.2-0.6c0.5,0.1,0.9,0.3,1.2,0.6
				C114.3,17.9,114.5,18.3,114.6,18.8z"/>
			<path id="XMLID_166_" class="st0" d="M53.4,12.2c-0.6,0-1,0.2-1.4,0.7c-0.4,0.4-0.4,1-0.4,1.6v8.7c0,1-0.6,1.9-1.3,2.6
				c-0.7,0.7-1.7,1.1-2.7,1.1c-1,0-1.5-0.4-2.2-1.1c-0.7-0.7-0.7-1.6-0.7-2.6v-8.7c0-0.6-0.7-1.2-1.1-1.6c-0.4-0.4-1.2-0.7-1.9-0.7
				c-0.6,0-1.6,0.2-2,0.7c-0.5,0.4-1,1-1,1.6v8.7c0,2.3,1.1,4.2,2.7,5.8c1.6,1.6,3.7,2.4,6,2.4c2.3,0,4.2-0.8,5.8-2.4
				c1.6-1.6,2.5-3.6,2.5-5.8v-8.7c0-0.6-0.1-1.2-0.6-1.6C54.5,12.4,54,12.2,53.4,12.2z"/>
			<path id="XMLID_165_" class="st0" d="M68.1,27.5h-4.6v-13c0-0.6-0.5-1.2-0.9-1.6c-0.4-0.5-1.1-0.7-1.8-0.7
				c-0.6,0-1.2,0.2-1.6,0.7c-0.5,0.4-0.7,1-0.7,1.6V29c0,0.6,0.2,1.3,0.6,1.7c0.4,0.5,1,0.8,1.6,0.8h7.3c0.6,0,1.2-0.3,1.6-0.8
				c0.4-0.4,0.7-1.1,0.7-1.7c0-0.6-0.2-0.8-0.7-1.3C69.2,27.3,68.7,27.5,68.1,27.5z"/>
			<path id="XMLID_164_" class="st0" d="M82.3,20.6c-1.1-0.7-2.3-1.1-3.7-1.2l0,0c-0.6,0-1.1-0.2-1.4-0.6c-0.3-0.3-0.4-0.6-0.4-1
				c0-0.4,0.2-0.7,0.5-0.9c0.4-0.3,0.9-0.4,1.5-0.3c0.5,0,1,0.3,1.4,0.7c0.5,0.4,1,0.6,1.7,0.6c0.6,0,1.2-0.3,1.6-0.7
				c0.4-0.5,0.7-1,0.6-1.7c0-0.6-0.3-1.2-0.7-1.6c-0.6-0.5-1.1-0.9-1.7-1.2c-0.8-0.4-1.6-0.6-2.6-0.7c-1.8-0.1-3.5,0.3-4.8,1.4
				c-1.4,1.1-2.1,2.5-2.2,4.2c-0.1,1.7,0.4,3.2,1.6,4.5c1.2,1.2,2.7,1.9,4.6,2c0.6,0,1.1,0.2,1.5,0.5c0.1,0.1,0.2,0.2,0.3,0.3
				c0.1,0.1,0.1,0.4,0.1,0.8c0,0.4-0.2,0.7-0.5,0.9c-0.4,0.3-0.9,0.4-1.5,0.3c-0.6,0-1-0.2-1.3-0.6c-0.4-0.5-1-0.7-1.6-0.7
				c-0.6,0-1.2,0.2-1.6,0.7c-0.4,0.4-0.7,1-0.7,1.6c0,0.6,0.2,1.2,0.7,1.6c1.1,1.2,2.6,1.8,4.3,1.9c0.2,0,0.4,0,0.6,0
				c1.6,0,3-0.5,4.2-1.4c1.4-1.1,2.1-2.5,2.2-4.2C85,23.6,84.1,21.8,82.3,20.6z"/>
			<path id="XMLID_160_" class="st0" d="M103.6,28l-6.5-14.5c-0.4-0.9-1.1-1.4-2.1-1.4c-1,0-1.7,0.5-2.1,1.4L86.3,28
				c-0.3,0.6-0.3,1.2-0.1,1.8c0.2,0.6,0.6,1,1.2,1.3c0.6,0.3,1.2,0.3,1.8,0.1c0.6-0.2,1-0.5,1.3-1.1l0.8-1.6h7.3l0.8,1.6
				c0.3,0.6,0.7,0.9,1.3,1.1c0.3,0.1,0.6,0.1,0.8,0.1c0.3,0,0.6-0.1,0.9-0.2c0.6-0.3,1-0.7,1.2-1.3C103.9,29.2,103.9,28.6,103.6,28z
				 M93.4,23.5L95,20l1.6,3.5H93.4z"/>
			<path id="XMLID_156_" class="st0" d="M117.2,14.4c-1.4-1.4-3-1.9-4.9-1.9h-4.1c-0.6,0-1.4,0.1-1.8,0.5c-0.5,0.4-0.8,0.8-0.8,1.5
				V29c0,0.6,0.4,1.2,0.8,1.6c0.4,0.5,1.1,0.7,1.7,0.7c0.6,0,1.8-0.2,2.2-0.7c0.5-0.4,1.3-1,1.3-1.6v-2.5h0.8c1.9,0,3.6-0.9,4.9-2.2
				c1.4-1.4,2-3,2-4.9C119.3,17.4,118.6,15.8,117.2,14.4z M114.6,19.7c0,0.2-0.1,0.4-0.2,0.5c-0.1,0.2-0.3,0.4-0.5,0.6
				c-0.5,0.5-1,0.7-1.7,0.7h-0.7v-5h0.7c0,0,0.1,0.2,0.1,0.2c0.1,0,0.2,0.1,0.2,0.1c0,0,0.1,0.1,0.1,0.1c0.1,0,0.1,0,0.2,0.1
				c0.4,0.1,0.7,0.3,1,0.6c0,0,0.1,0.1,0.1,0.2c0,0.1,0.1,0.1,0.1,0.2c0.2,0.3,0.4,0.6,0.4,1c0,0.1,0,0.2,0,0.4
				C114.6,19.4,114.6,19.5,114.6,19.7z"/>
		</g>
	</g>
</g>
<g id="Layer_2">
	<path id="XMLID_53_" class="st0" d="M30.1,12.7c-0.8,1.3-2.2,2.1-3.8,2.1c-1,0-1.9-0.4-2.7-1c0,0-0.1,0-0.1,0
		c-0.4-0.3-0.7-0.8-1-1.1h-5.4v14.8c0,1.7,1.4,3.1,3.1,3.1s3.1-1.4,3.1-3.1v-8.1c0.2,0,0.1,0,0.2,0c0,0,0.1,0,0.2,0h5
		c3.6,0,6.3-2.9,6.3-6.5v-0.3H30.1z M28.8,1.6h-5c-3.6,0-6.6,2.8-6.6,6.4v1.7h4.9c0,0,0,0,0-0.1c0,0,0,0,0,0c0.4-2,2.2-3.5,4.3-3.5
		c2.1,0,3.9,1.6,4.3,3.6h4.4V8C35.1,4.4,32.3,1.6,28.8,1.6z"/>
</g>
<g id="Layer_3">
	<path id="XMLID_30_" class="st0" d="M42.7,6.3l-4.5,0.9l1.2,1.4c-1.5,1.3-2.1,1.8-2.3,2h-6.9c-0.2,0-0.3,0-0.7,0.4l-0.2-1.8
		c0-0.3-0.3-0.6-0.6-0.6c-0.3,0-0.6,0.2-0.7,0.5l-0.3,0.9l-0.2-1.6c0-0.3-0.3-0.6-0.6-0.6c-0.3,0-0.6,0.2-0.7,0.5l-0.2,1l-0.1-0.8
		c0-0.3-0.3-0.5-0.6-0.6c-0.3,0-0.6,0.2-0.7,0.5l-0.3,1.2l-0.2-1c-0.1-0.3-0.3-0.5-0.6-0.5c-0.3,0-0.6,0.2-0.7,0.5l-0.4,1.4
		c0,0.1,0,0.1,0,0.3c0,0,0,0.1,0,0.1h-7.7v1.1h8.2c0.4,0,0.5-0.3,0.6-0.7l0.2,1c0.1,0.3,0.3,0.5,0.6,0.5c0.3,0,0.6-0.2,0.7-0.5
		l0.2-1l0.1,1c0,0.3,0.3,0.5,0.6,0.6c0.3,0,0.6-0.2,0.7-0.5l0.2-0.9l0.1,1.1c0,0.3,0.3,0.5,0.6,0.6c0,0,0,0,0,0
		c0.3,0,0.6-0.2,0.6-0.5l0.2-0.9l0.1,0.7c0,0.3,0.3,0.5,0.6,0.6c0.3,0,0.5-0.1,0.7-0.3c0.2-0.3,0.5-0.5,0.6-0.7h6.8
		c0.2,0,0.2,0,1.3-1c0.4-0.4,1-0.8,1.5-1.3l1.2,1.3L42.7,6.3z"/>
</g>
<g id="Layer_6" class="st1">
	<g id="XMLID_2_" class="st2">
		<g id="XMLID_3_">
			<path id="XMLID_11_" class="st3" d="M-133.4-173.2h45.9c0.3,0,0.6-3.7,0.7-4l2.2-7.9c0.2-0.7,1.3-0.6,1.4,0l3,16
				c0.1,0.7,1.3,0.7,1.4,0l4.1-17.1c0.2-0.7,1.3-0.6,1.4,0l2.5,17.5c0.1,0.7,1.3,0.7,1.5,0l3.6-18.6c0.1-0.7,1.4-0.7,1.5,0l2.6,20.1
				c0.1,0.7,1.3,0.7,1.4,0.1l4.4-16.2c0.2-0.7,1.4-0.6,1.4,0.1l1.9,15.2c0.1,0.6,1.1,0.8,1.4,0.2c0,0,4.4-5.4,4.7-5.4h39.4
				c0.1,0,8.5-7.3,16.5-14.3"/>
			<g id="XMLID_9_">
				<polygon id="XMLID_10_" class="st4" points="15.2,-175.3 23.5,-199.6 -1.7,-194.7 				"/>
			</g>
		</g>
	</g>
</g>
</svg>
